M48
;Layer_Color=9474304
;FILE_FORMAT=2:5
INCH,LZ
;TYPE=PLATED
T1F00S00C0.00800
T2F00S00C0.01299
T3F00S00C0.04528
T4F00S00C0.12992
;TYPE=NON_PLATED
T5F00S00C0.04000
T6F00S00C0.12795
%
T01
X0322748Y005
X02865Y00505
X02835Y004
X028Y0075
X027
X0275Y0085
X0285
X028Y0095
X027
X0263Y0111
X0299Y01205
Y01305
X0204238Y0132409
X0199Y013
X01985Y0136
X0204Y0104
X0221Y0095
X0234Y007625
Y007375
X021Y00575
X0211Y0048
X01675Y0065
X01705Y0094
X0171Y0116
X0144Y0112
X01395Y0115
X01445Y01255
X0129Y0137
X01155Y0135
X011126
X01105Y0127
Y0124
Y0121
X0114
Y0124
Y0127
X0107
Y0124
Y0121
X0103
X01035Y0124
X0103506Y0127376
X0103Y01355
X0095Y0127
X00895Y0131
X009Y01168
X0099Y0112
X01055Y01115
X01075Y01075
X0106Y0103
X0094Y01045
X0075Y0109
X0072Y0103
X0075Y0097
X0069
X0063
X0057
X006Y0091
X0066
X0072
X0054
X0023Y0077
X0088899Y0078101
X009095Y007605
X011Y0071
X01055Y00885
X0122Y01175
X0143Y00565
X01505Y01405
X01485Y0152
X01535Y0171
X01545Y0196
X01465Y01935
X01205Y01915
X01185Y0188
X01165Y01845
X0121Y0184
X0123Y0187
X01155Y0191
X01025Y0177
X0114Y0146
X01195Y0149
X01235Y0141
X01285Y022
X0115Y024
X011
X0105
X01
X0095
X009
X0085
X008
X0075
X007
X00725Y0235
X00775
X00825
X008Y023
X0075
X007
X00725Y0225
X00775
X00825
X008Y022
X0075
X007
X00725Y0215
X00775
X00825
X00675
Y0225
Y0235
X0021Y01625
X01595Y0166
X01615Y01755
X0166Y01775
X01695Y01735
X017Y01635
X0181Y0159
X0181836Y0155336
X01855Y01585
X01895Y0159
X0194969Y0161177
X01975Y0161
X021
X02135Y01565
X0214Y01665
X0204281Y0169778
X0206858Y0172858
X0204281Y0176391
X0205843Y0178343
X0199Y0192
X02Y01975
X01945Y01985
X02Y0205
X0205
X021
X0215
X02175Y021
X02225
X022Y0215
X0215
X021
X0205
X02
X02025Y022
X02075
X02125
X02175
X02225
X022Y0225
X0215
X021
X0205
X02
X02025Y021
X02075
X02125
X01975
X018
X01815Y02035
X0184878Y0191
X0171Y0186
X01695Y0195
X0162Y0192
X0176Y0148969
X01725Y01415
X0184Y0143
X0188Y01495
X0191Y01515
X0193Y0147
X0198Y0146
X02355Y0155
X02335Y0168
X02535Y01595
X0254Y01505
X02545Y0141
X02755
X0302Y01505
X0298Y01615
Y01945
X02975Y02045
X02945Y0214
Y022
X02905Y02445
X02555Y0234
Y02235
X02545Y02145
X02555Y02045
X02405Y0195
X02675Y01755
T02
X0178504Y0168476
Y0173201
X0183228
Y0168476
X0187953
Y0173201
Y0177925
X0183228
X0178504
Y018265
X0183228
X0187953
X0192677
Y0177925
Y0173201
Y0168476
T03
X01265Y00945
X01365
X01465
T04
X03031Y00195
X00512Y002
X00514Y02298
X03033Y02301
T05
X02233Y01514
X02193Y01714
X02273
T06
X002187Y00948
Y01448
M30
