G04*
G04 #@! TF.GenerationSoftware,Altium Limited,Altium Designer,23.1.1 (15)*
G04*
G04 Layer_Physical_Order=5*
G04 Layer_Color=128*
%FSLAX25Y25*%
%MOIN*%
G70*
G04*
G04 #@! TF.SameCoordinates,577C2DE3-5836-4DB5-AD87-4C8AFCD19023*
G04*
G04*
G04 #@! TF.FilePolarity,Negative*
G04*
G01*
G75*
%ADD97C,0.04000*%
%ADD104C,0.08528*%
%ADD105C,0.16795*%
%ADD106C,0.08000*%
%ADD107C,0.16992*%
%ADD108C,0.04800*%
G36*
X131000Y250000D02*
Y226000D01*
X206000D01*
Y250000D01*
X131000D01*
D02*
G37*
D97*
X25Y0D02*
X354356D01*
Y250000D01*
X25D02*
X354356D01*
X25Y0D02*
Y250000D01*
D104*
X126500Y94500D02*
D03*
X136500D02*
D03*
X146500D02*
D03*
D105*
X21870Y94800D02*
D03*
Y144800D02*
D03*
D106*
X227300Y171400D02*
D03*
X219300D02*
D03*
X223300Y151400D02*
D03*
D107*
X51400Y229800D02*
D03*
X303300Y230100D02*
D03*
X303100Y19500D02*
D03*
X51200Y20000D02*
D03*
D108*
X105500Y111500D02*
D03*
X99000Y112000D02*
D03*
X171000Y186000D02*
D03*
X191000Y151500D02*
D03*
X210000Y161000D02*
D03*
X240500Y195000D02*
D03*
X194969Y161177D02*
D03*
X189500Y159000D02*
D03*
X193000Y147000D02*
D03*
X255500Y223500D02*
D03*
X185500Y158500D02*
D03*
X148500Y152000D02*
D03*
X197500Y161000D02*
D03*
X170000Y163500D02*
D03*
X206858Y172858D02*
D03*
X204281Y169778D02*
D03*
Y176391D02*
D03*
X267500Y175500D02*
D03*
X275500Y141000D02*
D03*
X204238Y132409D02*
D03*
X199000Y130000D02*
D03*
X204000Y104000D02*
D03*
X302000Y150500D02*
D03*
X298000Y194500D02*
D03*
X297500Y204500D02*
D03*
X255500D02*
D03*
X188000Y149500D02*
D03*
X254500Y214500D02*
D03*
Y141000D02*
D03*
X263000Y111000D02*
D03*
X205843Y178343D02*
D03*
X181836Y155336D02*
D03*
X184000Y143000D02*
D03*
X123500Y141000D02*
D03*
X294500Y214000D02*
D03*
X255500Y234000D02*
D03*
X299000Y130500D02*
D03*
Y120500D02*
D03*
X171000Y116000D02*
D03*
X161500Y175500D02*
D03*
X254000Y150500D02*
D03*
X253500Y159500D02*
D03*
X199000Y192000D02*
D03*
X181000Y159000D02*
D03*
X298000Y161500D02*
D03*
X221000Y95000D02*
D03*
X119500Y149000D02*
D03*
X114000Y146000D02*
D03*
X283500Y40000D02*
D03*
X286500Y50500D02*
D03*
X213500Y156500D02*
D03*
X90950Y76050D02*
D03*
X88899Y78101D02*
D03*
X234000Y76250D02*
D03*
Y73750D02*
D03*
X105500Y88500D02*
D03*
X144500Y125500D02*
D03*
X95000Y127000D02*
D03*
X107500Y107500D02*
D03*
X144000Y112000D02*
D03*
X166000Y177500D02*
D03*
X139500Y115000D02*
D03*
X129000Y137000D02*
D03*
X194500Y198500D02*
D03*
X200000Y197500D02*
D03*
X214000Y166500D02*
D03*
X235500Y155000D02*
D03*
X322748Y50000D02*
D03*
X167500Y65000D02*
D03*
X121000Y184000D02*
D03*
X118500Y188000D02*
D03*
X116500Y184500D02*
D03*
X123000Y187000D02*
D03*
X120500Y191500D02*
D03*
X115500Y191000D02*
D03*
X89500Y131000D02*
D03*
M02*
