G04*
G04 #@! TF.GenerationSoftware,Altium Limited,Altium Designer,23.1.1 (15)*
G04*
G04 Layer_Color=8421504*
%FSLAX25Y25*%
%MOIN*%
G70*
G04*
G04 #@! TF.SameCoordinates,577C2DE3-5836-4DB5-AD87-4C8AFCD19023*
G04*
G04*
G04 #@! TF.FilePolarity,Positive*
G04*
G01*
G75*
%ADD16R,0.03740X0.03937*%
%ADD17R,0.02900X0.01100*%
%ADD18R,0.01180X0.02760*%
%ADD19R,0.00980X0.02760*%
%ADD20R,0.14370X0.10433*%
%ADD21R,0.08583X0.07598*%
%ADD22R,0.05512X0.07480*%
%ADD23R,0.07087X0.14961*%
%ADD24R,0.03937X0.10630*%
%ADD25R,0.03543X0.03150*%
%ADD26R,0.03937X0.03740*%
%ADD27R,0.01968X0.01968*%
%ADD28R,0.02362X0.02362*%
%ADD29R,0.03543X0.03150*%
%ADD30R,0.02362X0.02362*%
%ADD31R,0.01968X0.01968*%
%ADD32R,0.01968X0.03150*%
%ADD33R,0.03150X0.03150*%
%ADD34O,0.00787X0.02559*%
%ADD35R,0.18504X0.18504*%
%ADD36O,0.02559X0.00787*%
%ADD37R,0.15354X0.06700*%
%ADD38R,0.01575X0.02185*%
%ADD39R,0.15354X0.06700*%
%ADD40R,0.12008X0.02402*%
%ADD41R,0.03347X0.03740*%
%ADD42R,0.02165X0.02165*%
%ADD43R,0.10000X0.05000*%
%ADD44R,0.22047X0.09055*%
%ADD45R,0.05512X0.03937*%
%ADD46R,0.05906X0.05118*%
%ADD47R,0.02953X0.03740*%
%ADD48R,0.27600X0.27600*%
%ADD49R,0.06500X0.09850*%
%ADD50R,0.05118X0.05906*%
D16*
X164150Y171000D02*
D03*
X157850D02*
D03*
X198350Y58000D02*
D03*
X204650D02*
D03*
D17*
X117866Y126981D02*
D03*
Y125011D02*
D03*
Y123041D02*
D03*
X98870Y126981D02*
D03*
Y125011D02*
D03*
Y123041D02*
D03*
Y121071D02*
D03*
X117866D02*
D03*
D18*
X103500Y116441D02*
D03*
D19*
X105468D02*
D03*
X107437D02*
D03*
X109406D02*
D03*
X111374D02*
D03*
X113342D02*
D03*
Y131401D02*
D03*
X111374D02*
D03*
X109406D02*
D03*
X107437D02*
D03*
X105468D02*
D03*
X103500D02*
D03*
D20*
X108368Y123921D02*
D03*
D21*
X138752Y48500D02*
D03*
X150248D02*
D03*
X120252Y72500D02*
D03*
X131748D02*
D03*
X121252Y61500D02*
D03*
X132748D02*
D03*
X308748Y50000D02*
D03*
X297252D02*
D03*
D22*
X203496Y48500D02*
D03*
X190504D02*
D03*
D23*
X100311Y18984D02*
D03*
X126689D02*
D03*
X158811D02*
D03*
X185189D02*
D03*
D24*
X109563Y36504D02*
D03*
X117437D02*
D03*
X168063D02*
D03*
X175937D02*
D03*
D25*
X160543Y151362D02*
D03*
X153457D02*
D03*
X160543Y146638D02*
D03*
X153457D02*
D03*
D26*
X198000Y150350D02*
D03*
Y156650D02*
D03*
X128500Y213650D02*
D03*
Y207350D02*
D03*
X109000Y184150D02*
D03*
Y177850D02*
D03*
D27*
X176500Y157968D02*
D03*
Y154032D02*
D03*
X182500Y196531D02*
D03*
Y200468D02*
D03*
X102500Y104563D02*
D03*
Y108500D02*
D03*
X98000Y104563D02*
D03*
Y108500D02*
D03*
D28*
X177433Y127500D02*
D03*
X181567D02*
D03*
X137433Y108000D02*
D03*
X141567D02*
D03*
X161433Y116000D02*
D03*
X165567D02*
D03*
X137933Y148000D02*
D03*
X142067D02*
D03*
X156067Y127500D02*
D03*
X151933D02*
D03*
D29*
X194102Y130000D02*
D03*
Y137205D02*
D03*
X186228Y133602D02*
D03*
X169437Y130398D02*
D03*
Y137602D02*
D03*
X161563Y134000D02*
D03*
X145937Y130898D02*
D03*
Y138102D02*
D03*
X138063Y134500D02*
D03*
D30*
X85700Y121100D02*
D03*
Y116966D02*
D03*
X156000Y192067D02*
D03*
Y187933D02*
D03*
X151000Y192067D02*
D03*
Y187933D02*
D03*
X186800Y219067D02*
D03*
Y214933D02*
D03*
X78600Y121766D02*
D03*
Y125900D02*
D03*
X85900Y126833D02*
D03*
Y130967D02*
D03*
D31*
X190532Y223200D02*
D03*
X194468D02*
D03*
X171531Y210000D02*
D03*
X175469D02*
D03*
X195468Y203100D02*
D03*
X191532D02*
D03*
X166969Y165500D02*
D03*
X163031D02*
D03*
X167469Y187500D02*
D03*
X163531D02*
D03*
X175969Y195000D02*
D03*
X172031D02*
D03*
X191232Y212600D02*
D03*
X195168D02*
D03*
X191332Y208500D02*
D03*
X195268D02*
D03*
D32*
X110547Y89500D02*
D03*
X116453D02*
D03*
X158547Y94000D02*
D03*
X164453D02*
D03*
X128953Y132000D02*
D03*
X123047D02*
D03*
D33*
X130953Y107500D02*
D03*
X125047D02*
D03*
X155453Y116000D02*
D03*
X149547D02*
D03*
D34*
X192677Y163654D02*
D03*
X191102D02*
D03*
X189528D02*
D03*
X176929Y187472D02*
D03*
X178504D02*
D03*
X180079D02*
D03*
X181653D02*
D03*
X183228D02*
D03*
X184803D02*
D03*
X186378D02*
D03*
X187953D02*
D03*
X189528D02*
D03*
X191102D02*
D03*
X192677D02*
D03*
X194252D02*
D03*
Y163654D02*
D03*
X186378D02*
D03*
X184803D02*
D03*
X183228D02*
D03*
X181653D02*
D03*
X180079D02*
D03*
X178504D02*
D03*
X176929D02*
D03*
X187953D02*
D03*
D35*
X185591Y175563D02*
D03*
D36*
X173681Y166902D02*
D03*
Y170051D02*
D03*
Y171626D02*
D03*
Y173201D02*
D03*
Y174776D02*
D03*
Y176350D02*
D03*
Y182650D02*
D03*
Y184224D02*
D03*
X197500D02*
D03*
Y182650D02*
D03*
Y181075D02*
D03*
Y179500D02*
D03*
Y177925D02*
D03*
Y176350D02*
D03*
Y174776D02*
D03*
Y173201D02*
D03*
Y171626D02*
D03*
Y170051D02*
D03*
Y168476D02*
D03*
Y166902D02*
D03*
X173681Y168476D02*
D03*
Y181075D02*
D03*
Y179500D02*
D03*
Y177925D02*
D03*
D37*
X21870Y84574D02*
D03*
D38*
X14980Y89485D02*
D03*
X28760D02*
D03*
X14980Y150115D02*
D03*
X28760D02*
D03*
D39*
X21870Y155026D02*
D03*
D40*
X61240Y109800D02*
D03*
Y113800D02*
D03*
Y117800D02*
D03*
Y121800D02*
D03*
Y125800D02*
D03*
Y129800D02*
D03*
Y105800D02*
D03*
Y133800D02*
D03*
D41*
X171236Y199646D02*
D03*
X175764D02*
D03*
Y205354D02*
D03*
X171236D02*
D03*
D42*
X186900Y207070D02*
D03*
Y203330D02*
D03*
D43*
X273500Y40000D02*
D03*
Y50000D02*
D03*
Y60000D02*
D03*
Y70000D02*
D03*
Y80000D02*
D03*
X252004Y40000D02*
D03*
Y50000D02*
D03*
Y60000D02*
D03*
Y70000D02*
D03*
Y80000D02*
D03*
X286500Y120500D02*
D03*
Y130500D02*
D03*
Y140500D02*
D03*
Y150500D02*
D03*
Y160500D02*
D03*
X265004Y120500D02*
D03*
Y130500D02*
D03*
Y140500D02*
D03*
Y150500D02*
D03*
Y160500D02*
D03*
X286248Y194500D02*
D03*
Y204500D02*
D03*
Y214500D02*
D03*
Y224500D02*
D03*
Y234500D02*
D03*
X264752Y194500D02*
D03*
Y204500D02*
D03*
Y214500D02*
D03*
Y224500D02*
D03*
Y234500D02*
D03*
D44*
X50000Y198567D02*
D03*
Y169433D02*
D03*
D45*
X156831Y65000D02*
D03*
X148169Y61260D02*
D03*
Y68740D02*
D03*
D46*
X121000Y199660D02*
D03*
Y207140D02*
D03*
D47*
X76000Y200000D02*
D03*
X71079D02*
D03*
D48*
X100000Y224300D02*
D03*
D49*
X109050Y199700D02*
D03*
X90950D02*
D03*
D50*
X183160Y57000D02*
D03*
X190640D02*
D03*
M02*
