G04*
G04 #@! TF.GenerationSoftware,Altium Limited,Altium Designer,23.1.1 (15)*
G04*
G04 Layer_Color=16711935*
%FSLAX25Y25*%
%MOIN*%
G70*
G04*
G04 #@! TF.SameCoordinates,577C2DE3-5836-4DB5-AD87-4C8AFCD19023*
G04*
G04*
G04 #@! TF.FilePolarity,Negative*
G04*
G01*
G75*
%ADD86C,0.07800*%
%ADD87C,0.13595*%
%ADD88C,0.15300*%
%ADD89C,0.00700*%
%ADD90C,0.03398*%
D86*
X126500Y94500D02*
D03*
X136500D02*
D03*
X146500D02*
D03*
D87*
X21870Y94800D02*
D03*
Y144800D02*
D03*
D88*
X51400Y229800D02*
D03*
X303300Y230100D02*
D03*
X303100Y19500D02*
D03*
X51200Y20000D02*
D03*
D89*
X105500Y111500D02*
D03*
X99000Y112000D02*
D03*
X181500Y203500D02*
D03*
X162000Y192000D02*
D03*
X171000Y186000D02*
D03*
X114000Y121000D02*
D03*
X110500D02*
D03*
X107000D02*
D03*
X103000D02*
D03*
X103500Y124000D02*
D03*
X107000D02*
D03*
X110500D02*
D03*
X114000D02*
D03*
Y127000D02*
D03*
X110500D02*
D03*
X107000D02*
D03*
X103506Y127376D02*
D03*
X191000Y151500D02*
D03*
X198000Y146000D02*
D03*
X180000Y210000D02*
D03*
X210000Y161000D02*
D03*
X240500Y195000D02*
D03*
X194969Y161177D02*
D03*
X189500Y159000D02*
D03*
X193000Y147000D02*
D03*
X255500Y223500D02*
D03*
X185500Y158500D02*
D03*
X122000Y117500D02*
D03*
X21000Y162500D02*
D03*
X23000Y77000D02*
D03*
X148500Y152000D02*
D03*
X197500Y161000D02*
D03*
X170000Y163500D02*
D03*
X75000Y109000D02*
D03*
X72000Y103000D02*
D03*
X75000Y97000D02*
D03*
X72000Y91000D02*
D03*
X69000Y97000D02*
D03*
X66000Y91000D02*
D03*
X63000Y97000D02*
D03*
X60000Y91000D02*
D03*
X57000Y97000D02*
D03*
X54000Y91000D02*
D03*
X115000Y240000D02*
D03*
X110000D02*
D03*
X105000D02*
D03*
X100000D02*
D03*
X95000D02*
D03*
X90000D02*
D03*
X85000D02*
D03*
X80000D02*
D03*
X82500Y235000D02*
D03*
X80000Y230000D02*
D03*
X82500Y225000D02*
D03*
X80000Y220000D02*
D03*
X82500Y215000D02*
D03*
X75000Y240000D02*
D03*
X77500Y235000D02*
D03*
X75000Y230000D02*
D03*
X77500Y225000D02*
D03*
X75000Y220000D02*
D03*
X77500Y215000D02*
D03*
X70000Y240000D02*
D03*
X72500Y235000D02*
D03*
X70000Y230000D02*
D03*
X72500Y225000D02*
D03*
X70000Y220000D02*
D03*
X72500Y215000D02*
D03*
X67500Y235000D02*
D03*
Y225000D02*
D03*
Y215000D02*
D03*
X220000Y225000D02*
D03*
X222500Y220000D02*
D03*
X220000Y215000D02*
D03*
X222500Y210000D02*
D03*
X215000Y225000D02*
D03*
X217500Y220000D02*
D03*
X215000Y215000D02*
D03*
X217500Y210000D02*
D03*
X215000Y205000D02*
D03*
X210000Y225000D02*
D03*
X212500Y220000D02*
D03*
X210000Y215000D02*
D03*
X212500Y210000D02*
D03*
X210000Y205000D02*
D03*
X205000Y225000D02*
D03*
X207500Y220000D02*
D03*
X205000Y215000D02*
D03*
X207500Y210000D02*
D03*
X205000Y205000D02*
D03*
X200000Y225000D02*
D03*
X202500Y220000D02*
D03*
X200000Y215000D02*
D03*
X202500Y210000D02*
D03*
X200000Y205000D02*
D03*
X197500Y210000D02*
D03*
X280000Y95000D02*
D03*
X285000Y85000D02*
D03*
X280000Y75000D02*
D03*
X270000Y95000D02*
D03*
X275000Y85000D02*
D03*
X270000Y75000D02*
D03*
X102500Y177000D02*
D03*
X206858Y172858D02*
D03*
X204281Y169778D02*
D03*
Y176391D02*
D03*
X267500Y175500D02*
D03*
X275500Y141000D02*
D03*
X204238Y132409D02*
D03*
X199000Y130000D02*
D03*
X204000Y104000D02*
D03*
X302000Y150500D02*
D03*
X290500Y244500D02*
D03*
X294500Y220000D02*
D03*
X298000Y194500D02*
D03*
X297500Y204500D02*
D03*
X255500D02*
D03*
X188000Y149500D02*
D03*
X254500Y214500D02*
D03*
Y141000D02*
D03*
X198500Y136000D02*
D03*
X263000Y111000D02*
D03*
X205843Y178343D02*
D03*
X181836Y155336D02*
D03*
X159500Y166000D02*
D03*
X172500Y141500D02*
D03*
X176000Y148969D02*
D03*
X184000Y143000D02*
D03*
X123500Y141000D02*
D03*
X294500Y214000D02*
D03*
X255500Y234000D02*
D03*
X299000Y130500D02*
D03*
Y120500D02*
D03*
X171000Y116000D02*
D03*
X161500Y175500D02*
D03*
X254000Y150500D02*
D03*
X253500Y159500D02*
D03*
X233500Y168000D02*
D03*
X199000Y192000D02*
D03*
X181000Y159000D02*
D03*
X153500Y171000D02*
D03*
X169500Y173500D02*
D03*
X154500Y196000D02*
D03*
X146500Y193500D02*
D03*
X298000Y161500D02*
D03*
X221000Y95000D02*
D03*
X119500Y149000D02*
D03*
X114000Y146000D02*
D03*
X283500Y40000D02*
D03*
X286500Y50500D02*
D03*
X213500Y156500D02*
D03*
X90950Y76050D02*
D03*
X88899Y78101D02*
D03*
X234000Y76250D02*
D03*
Y73750D02*
D03*
X105500Y88500D02*
D03*
X170500Y94000D02*
D03*
X150500Y140500D02*
D03*
X144500Y125500D02*
D03*
X95000Y127000D02*
D03*
X106000Y103000D02*
D03*
X94000Y104500D02*
D03*
X107500Y107500D02*
D03*
X144000Y112000D02*
D03*
X166000Y177500D02*
D03*
X139500Y115000D02*
D03*
X129000Y137000D02*
D03*
X103000Y135500D02*
D03*
X115500Y135000D02*
D03*
X111260D02*
D03*
X169500Y195000D02*
D03*
X184878Y191000D02*
D03*
X194500Y198500D02*
D03*
X200000Y197500D02*
D03*
X214000Y166500D02*
D03*
X235500Y155000D02*
D03*
X110000Y71000D02*
D03*
X322748Y50000D02*
D03*
X210000Y57500D02*
D03*
X167500Y65000D02*
D03*
X143000Y56500D02*
D03*
X211000Y48000D02*
D03*
X121000Y184000D02*
D03*
X118500Y188000D02*
D03*
X116500Y184500D02*
D03*
X123000Y187000D02*
D03*
X120500Y191500D02*
D03*
X115500Y191000D02*
D03*
X128500Y220000D02*
D03*
X89500Y131000D02*
D03*
X90000Y116800D02*
D03*
D90*
X192677Y182650D02*
D03*
Y177925D02*
D03*
Y173201D02*
D03*
Y168476D02*
D03*
X187953Y182650D02*
D03*
Y177925D02*
D03*
Y173201D02*
D03*
Y168476D02*
D03*
X183228Y182650D02*
D03*
Y177925D02*
D03*
Y173201D02*
D03*
Y168476D02*
D03*
X178504Y182650D02*
D03*
Y177925D02*
D03*
Y168476D02*
D03*
Y173201D02*
D03*
M02*
